<svg id="Layer_1" data-name="Layer 1" xmlns="http://www.w3.org/2000/svg" xmlns:xlink="http://www.w3.org/1999/xlink" viewBox="0 0 50 50"><defs><style>.cls-1,.cls-2{fill:none;}.cls-2{clip-rule:evenodd;}.cls-3{clip-path:url(#clip-path);}.cls-4{clip-path:url(#clip-path-2);}.cls-5{clip-path:url(#clip-path-3);}.cls-6{clip-path:url(#clip-path-4);}.cls-7{clip-path:url(#clip-path-5);}.cls-8{fill:#dcdcdc;}.cls-9{clip-path:url(#clip-path-6);}.cls-10{clip-path:url(#clip-path-8);}.cls-11{clip-path:url(#clip-path-9);}.cls-12{clip-path:url(#clip-path-10);}.cls-13{clip-path:url(#clip-path-11);}</style><clipPath id="clip-path"><rect class="cls-1" x="-44.5" y="-348.14" width="1343" height="86"/></clipPath><clipPath id="clip-path-2"><path class="cls-2" d="M26.2-69.88A22.72,22.72,0,0,1,3.5-92.57a22.72,22.72,0,0,1,22.7-22.7,22.72,22.72,0,0,1,22.7,22.7,22.72,22.72,0,0,1-22.7,22.7m0-43.48A20.81,20.81,0,0,0,5.41-92.57,20.81,20.81,0,0,0,26.2-71.79,20.81,20.81,0,0,0,47-92.57,20.81,20.81,0,0,0,26.2-113.36"/></clipPath><clipPath id="clip-path-3"><path class="cls-2" d="M26.14-81.83l-4.72-.06q-1.63,0-3.91.09l-.36-1.63a4.59,4.59,0,0,0,1.91-.3.86.86,0,0,0,.47-.78l.12-16.13a.91.91,0,0,0-.41-.81,3.23,3.23,0,0,0-1.61-.27l-.39-1.63q3.61.09,5,.09t3.63-.09l.36,1.63a4.56,4.56,0,0,0-1.91.3.86.86,0,0,0-.47.78v15.32q0,1.6,1.47,1.59h2.83q4.06,0,5.54-4.33l1.63.33a17.55,17.55,0,0,1-.87,3.18q-.87,2.66-1.29,2.66Z"/></clipPath><clipPath id="clip-path-4"><path class="cls-2" d="M25,47.7A22.7,22.7,0,1,1,47.7,25,22.72,22.72,0,0,1,25,47.7M25,4.22A20.78,20.78,0,1,0,45.78,25,20.81,20.81,0,0,0,25,4.22"/></clipPath><clipPath id="clip-path-5"><rect class="cls-1" x="-142.7" y="-68.56" width="1440" height="1024"/></clipPath><clipPath id="clip-path-6"><path class="cls-2" d="M24.94,35.75l-4.72-.06q-1.63,0-3.91.09l-.36-1.63a4.59,4.59,0,0,0,1.91-.3.86.86,0,0,0,.47-.78l.12-16.13a.91.91,0,0,0-.41-.81,3.23,3.23,0,0,0-1.61-.27L16,14.22q3.61.09,5,.09t3.63-.09L25,15.85a4.56,4.56,0,0,0-1.91.3.86.86,0,0,0-.47.78V32.25q0,1.6,1.47,1.59H26.9q4.06,0,5.54-4.33l1.63.33A17.55,17.55,0,0,1,33.19,33q-.87,2.66-1.29,2.66Z"/></clipPath><clipPath id="clip-path-8"><path class="cls-1" d="M1183.2-83.64h-3.4v-9.2h-2.3V-96h2.3v-1.9c0-2.6.7-4.2,3.7-4.2h2.5v3.2h-1.5c-1.2,0-1.2.4-1.2,1.3V-96h2.8l-.3,3.2h-2.5Z"/></clipPath><clipPath id="clip-path-9"><path class="cls-1" d="M1227.9-98.34a5.75,5.75,0,0,1-1.9,1.9v.5a10.32,10.32,0,0,1-.4,3,10.76,10.76,0,0,1-1.3,2.9,12.74,12.74,0,0,1-2.2,2.5,8.72,8.72,0,0,1-3,1.7,11.64,11.64,0,0,1-3.8.6,10.9,10.9,0,0,1-5.8-1.7h.9a7.43,7.43,0,0,0,4.7-1.6,3.72,3.72,0,0,1-2.2-.8,3.63,3.63,0,0,1-1.3-1.9c.3,0,.5.1.7.1a3.4,3.4,0,0,0,1-.1,3.84,3.84,0,0,1-2.2-1.3,3.58,3.58,0,0,1-.9-2.4,3.37,3.37,0,0,0,1.7.5,3.75,3.75,0,0,1-1.2-1.3,3.74,3.74,0,0,1-.5-1.8,4.14,4.14,0,0,1,.5-1.9,10.22,10.22,0,0,0,3.4,2.8,10.64,10.64,0,0,0,4.3,1.2,2.77,2.77,0,0,1-.1-.9,4,4,0,0,1,1.1-2.7,3.34,3.34,0,0,1,2.7-1.1,3.42,3.42,0,0,1,2.7,1.2,11.72,11.72,0,0,0,2.4-.9,3.52,3.52,0,0,1-1.7,2.1A7.66,7.66,0,0,0,1227.9-98.34Z"/></clipPath><clipPath id="clip-path-10"><path class="cls-1" d="M1262.1-98.74h-1.8a.43.43,0,0,1-.4-.4v-1.8a.43.43,0,0,0-.4-.4h-.5a.43.43,0,0,0-.4.4v1.8a.43.43,0,0,1-.4.4h-1.7a.43.43,0,0,0-.4.4v.5a.43.43,0,0,0,.4.4h1.8a.43.43,0,0,1,.4.4v1.8a.43.43,0,0,0,.4.4h.5a.43.43,0,0,0,.4-.4v-1.9a.43.43,0,0,1,.4-.4h1.8a.43.43,0,0,0,.4-.4v-.5A.85.85,0,0,0,1262.1-98.74Z"/></clipPath><clipPath id="clip-path-11"><path class="cls-1" d="M1248.2-89.44a1.58,1.58,0,0,1,.7-.7,9.28,9.28,0,0,1,1-.5,4.25,4.25,0,0,1,1.1-.2c.3,0,.7-.1,1-.1h.2c.1,0,.3.1.4.1a.35.35,0,0,0,.2.1,1.24,1.24,0,0,1,.3.2c.1,0,.2.1.3.2s.3.2.3.3.2.1.3.3l.3.3c.1.1.1.2.2.3s.1.2.2.3.1.2.1.4v.4a2,2,0,0,1-.3,1.1,1.58,1.58,0,0,1-.7.7,3,3,0,0,1-1,.4,4.1,4.1,0,0,1-1.1.1,6.15,6.15,0,0,1-1.3-.1,5.64,5.64,0,0,1-1.2-.4,2.36,2.36,0,0,1-.9-.8,2.84,2.84,0,0,1-.4-1.2A2.13,2.13,0,0,1,1248.2-89.44Zm2.6-5.2a2.69,2.69,0,0,1-.8-.7l-.6-.9a4.18,4.18,0,0,1-.4-1,3.4,3.4,0,0,1-.1-1,2.77,2.77,0,0,1,.5-1.6,1.51,1.51,0,0,1,1.4-.7,1.92,1.92,0,0,1,1.2.4,2.54,2.54,0,0,1,.8,1,5,5,0,0,1,.5,1.3,5.85,5.85,0,0,1,.2,1.3,5.07,5.07,0,0,1-.2,1.3c-.1.2-.3.4-.4.6a2,2,0,0,1-1.1.3A2.93,2.93,0,0,1,1250.8-94.64Zm-3.7,8.8a10.92,10.92,0,0,0,1.1.6,2.66,2.66,0,0,0,1.2.3,4.87,4.87,0,0,0,1.2.1,5.78,5.78,0,0,0,4.1-1.3,3.65,3.65,0,0,0,1.4-2.8,4.25,4.25,0,0,0-.2-1.1,5.94,5.94,0,0,0-.4-.8c-.2-.2-.4-.5-.6-.7a2.65,2.65,0,0,0-.6-.5c-.2-.2-.4-.3-.6-.5a1.76,1.76,0,0,1-.4-.5c-.1-.2-.2-.3-.2-.5a1.85,1.85,0,0,1,.2-.7,3.39,3.39,0,0,1,.6-.6,4.35,4.35,0,0,1,.7-.6,3.49,3.49,0,0,0,.6-.9,2.74,2.74,0,0,0,.2-1.3,3.53,3.53,0,0,0-.4-1.7,2.72,2.72,0,0,0-.8-1c-.2-.1-.1-.2.1-.2h.6a1.85,1.85,0,0,0,.7-.2l.7-.4c.2-.1.2-.2,0-.2h-4a11,11,0,0,0-1.8.2,4.25,4.25,0,0,0-2.3,1.4,3.84,3.84,0,0,0-.9,2.5,3,3,0,0,0,1.1,2.4,3.74,3.74,0,0,0,2.5,1h.3c.2,0,.3,0,.3.1v.1a.35.35,0,0,1-.1.2v.4a2.13,2.13,0,0,0,.4,1.2c.1.2,0,.3-.2.3-.4,0-.8.1-1.1.1a8.33,8.33,0,0,0-1.5.4,6.11,6.11,0,0,0-1.4.7,3.13,3.13,0,0,0-.9,1.1,3.82,3.82,0,0,0-.4,1.3,2.66,2.66,0,0,0,.3,1.2A1.05,1.05,0,0,0,1247.1-85.84Z"/></clipPath></defs><title>logo</title><rect class="cls-1" x="-141.5" y="-186.14" width="1440" height="1024"/><g class="cls-6"><g class="cls-7"><rect class="cls-8" x="-2.7" y="-2.7" width="55.39" height="55.39"/></g></g><g class="cls-9"><g class="cls-7"><rect class="cls-8" x="10.94" y="9.22" width="28.12" height="31.55"/></g></g></svg>